<?xml version="1.0" encoding="UTF-8"?>
<svg id="_图层_2" data-name="图层 2" xmlns="http://www.w3.org/2000/svg" viewBox="0 0 213.92 98.83">
  <defs>
    <style>
      .cls-1 {
        fill: #39b54a;
      }

      .cls-2 {
        fill: #fff;
      }
    </style>
  </defs>
  <g id="_图层_1-2" data-name="图层 1">
    <g>
      <path class="cls-2" d="M33.38,30.83c-1.46,0-2.88.21-4.23.56.7,1.37,1.1,2.92,1.1,4.56,0,5.58-4.54,10.13-10.13,10.13-1.18,0-2.31-.21-3.36-.59-.09.69-.15,1.39-.15,2.1,0,0,0,0,0,0v36.22h10.89v-20.58c1.83.69,3.8,1.11,5.87,1.11,9.26,0,16.76-7.5,16.76-16.76s-7.5-16.76-16.76-16.76ZM33.38,53.03c-3,0-5.44-2.44-5.44-5.44s2.44-5.44,5.44-5.44,5.44,2.44,5.44,5.44-2.44,5.44-5.44,5.44Z"/>
      <path class="cls-2" d="M107.38,26.33v-11.33c-10.72,0-19.43,8.73-19.43,19.44v28.14h11.33v-21.18h7.1v-8.7h-6.75c.82-3.62,3.9-6.38,7.76-6.38Z"/>
      <path class="cls-2" d="M128.53,26.33v-11.33c-10.72,0-19.44,8.73-19.44,19.44v28.14h11.33v-21.18h6.74v-8.7h-6.38c.82-3.62,3.9-6.38,7.77-6.38Z"/>
      <path class="cls-2" d="M72.65,32.5v16.34c0,2.72-2.22,4.94-4.94,4.94s-4.94-2.22-4.94-4.94v-16.34h-11.33v16.34c0,8.97,7.3,16.27,16.27,16.27s16.27-7.3,16.27-16.27v-16.34h-11.33Z"/>
      <path class="cls-2" d="M147.39,29.96c-8.97,0-16.26,7.3-16.26,16.27v16.35h11.33v-16.35c0-2.72,2.21-4.94,4.93-4.94s4.94,2.22,4.94,4.94v16.35h11.33v-16.35c0-8.97-7.3-16.27-16.27-16.27Z"/>
      <path class="cls-2" d="M187.59,32.36v16.35c0,2.72-2.21,4.94-4.93,4.94s-4.94-2.22-4.94-4.94v-16.35h-11.33v16.35c0,8.97,7.3,16.27,16.27,16.27,1.73,0,3.37-.34,4.93-.85v.26c0,4.44-3.59,8.06-8.02,8.1h-6.6v11.33h6.7c10.63-.11,19.25-8.78,19.25-19.43v-32.03h-11.33Z"/>
      <path class="cls-2" d="M47.63,75.27c-.62-.31-1.36-.46-2.21-.46h-3.07v8.21h2.91c1.34,0,2.39-.34,3.16-1.04.76-.7,1.15-1.76,1.15-3.19,0-.84-.17-1.56-.5-2.16s-.82-1.05-1.44-1.36ZM47.07,80.87c-.43.41-1.09.62-1.99.62h-.96v-5.19h1.12c.81,0,1.42.23,1.85.7.42.45.64,1.06.64,1.81,0,.95-.22,1.64-.65,2.06Z"/>
      <path class="cls-2" d="M61.57,78.71c-.2-.53-.53-.95-.97-1.26s-.98-.45-1.63-.45c-.55,0-1.04.11-1.47.35-.44.24-.79.6-1.05,1.07-.25.46-.38,1.02-.38,1.66s.12,1.18.38,1.65c.27.46.62.82,1.07,1.06.45.25.98.38,1.57.38.43,0,.84-.09,1.19-.24.36-.17.67-.39.91-.66.24-.28.41-.58.49-.91l-1.49-.38c-.09.3-.23.52-.43.64-.19.13-.42.2-.67.2-.23,0-.45-.07-.64-.2s-.34-.32-.45-.55c-.07-.17-.08-.36-.11-.54h3.9c.07-.67,0-1.27-.21-1.81ZM57.9,79.44c.02-.17.03-.35.1-.48.11-.21.25-.38.43-.48s.35-.15.54-.15.36.06.53.15c.15.1.29.23.39.4.09.17.15.34.18.55h-2.17Z"/>
      <path class="cls-2" d="M72.96,80.03c-.23-.15-.54-.28-.94-.39l-1.34-.36c-.12-.02-.21-.07-.3-.11-.08-.04-.13-.1-.18-.17-.06-.07-.08-.15-.08-.25s.04-.2.11-.29.15-.15.28-.2c.12-.06.25-.08.39-.08.29,0,.52.09.7.25.17.18.29.41.34.71l1.55-.28c-.06-.59-.3-1.05-.76-1.38-.46-.34-1.05-.51-1.77-.51-.49,0-.93.08-1.31.23-.39.15-.67.36-.88.64-.22.29-.32.6-.32.95,0,.42.12.75.36,1.01.23.24.62.45,1.13.61l1.24.38c.19.06.34.11.45.15.1.06.18.11.22.17.04.07.07.14.07.23,0,.11-.03.21-.1.3s-.17.15-.29.2-.28.07-.44.07c-.31,0-.56-.09-.77-.27s-.35-.41-.42-.7l-1.56.31c.12.62.42,1.08.92,1.42s1.11.5,1.82.5c.51,0,.94-.08,1.33-.24.39-.15.69-.38.91-.66.21-.29.32-.63.32-1.01,0-.28-.06-.51-.15-.71-.11-.2-.28-.36-.52-.52Z"/>
      <path class="cls-2" d="M81.37,74.34c-.28,0-.51.09-.69.28-.19.19-.28.41-.28.69s.09.5.28.69.41.28.69.28.52-.09.7-.28.27-.41.27-.69-.09-.5-.27-.69-.41-.28-.7-.28Z"/>
      <rect class="cls-2" x="80.5" y="77.14" width="1.71" height="5.87"/>
      <path class="cls-2" d="M93.29,78.07h-.03c-.11-.35-.31-.62-.58-.8-.28-.19-.61-.28-1.03-.28-.51,0-.95.11-1.35.35s-.71.6-.93,1.06c-.22.45-.33,1-.33,1.63,0,.58.1,1.08.32,1.54.21.44.52.8.93,1.05.4.25.87.38,1.4.38.4,0,.72-.08.98-.23.25-.15.45-.38.58-.69h.03v.69c0,.43-.12.75-.34.98-.23.22-.52.34-.87.34-.28,0-.53-.08-.74-.21-.22-.14-.4-.35-.55-.64l-1.53.49c.18.51.51.92.98,1.22.46.3,1.06.44,1.77.44.56,0,1.07-.1,1.53-.31s.81-.51,1.07-.91c.25-.4.39-.86.39-1.39v-5.64h-1.65l-.06.93ZM93.12,81.04c-.12.24-.28.41-.46.51s-.4.15-.63.15c-.21,0-.42-.08-.61-.21s-.34-.33-.46-.59c-.12-.24-.18-.54-.18-.87s.06-.65.17-.92.27-.46.45-.61c.19-.13.41-.21.65-.21.2,0,.4.06.59.15.18.1.34.28.46.53.13.25.2.61.2,1.06,0,.42-.07.75-.18,1Z"/>
      <path class="cls-2" d="M105.6,76.98c-.41,0-.76.09-1.08.27-.31.19-.55.45-.72.82h-.02l-.07-.93h-1.65v5.87h1.71v-3.05c0-.36.06-.66.18-.91.11-.24.27-.42.45-.53s.4-.17.61-.17c.24,0,.44.09.61.27.18.18.25.43.25.77v3.62h1.71v-4.2c0-.52-.18-.96-.53-1.31-.34-.35-.84-.52-1.46-.52Z"/>
      <path class="cls-2" d="M119.86,78.71c-.2-.53-.53-.95-.97-1.26s-.98-.45-1.63-.45c-.55,0-1.04.11-1.47.35-.44.24-.79.6-1.05,1.07-.25.46-.38,1.02-.38,1.66s.12,1.18.38,1.65c.27.46.62.82,1.07,1.06.45.25.98.38,1.57.38.43,0,.84-.09,1.19-.24.36-.17.67-.39.91-.66.24-.28.41-.58.49-.91l-1.49-.38c-.09.3-.23.52-.43.64-.19.13-.42.2-.67.2-.23,0-.45-.07-.64-.2s-.34-.32-.45-.55c-.07-.17-.08-.36-.11-.54h3.9c.07-.67,0-1.27-.21-1.81ZM116.18,79.44c.02-.17.03-.35.1-.48.11-.21.25-.38.43-.48s.35-.15.54-.15.36.06.53.15c.15.1.29.23.39.4.09.17.15.34.18.55h-2.17Z"/>
      <path class="cls-2" d="M130.36,76.99c-.41,0-.76.11-1.09.34-.32.23-.55.53-.67.9h-.02l-.07-1.09h-1.65v5.87h1.71v-2.68c0-.39.08-.73.23-1.01.17-.29.36-.51.62-.66s.52-.22.8-.22c.2,0,.44.02.72.08v-1.46c-.11-.03-.21-.06-.3-.06-.09-.01-.19-.01-.28-.01Z"/>
      <path class="cls-1" d="M25.16,35.09c-.02-.12-.05-.24-.08-.35-.03-.13-.08-.26-.12-.39-.11-.34-.26-.66-.43-.96,0,0,0,0,0,0-.89-1.52-2.52-2.55-4.41-2.55-2.83,0-5.12,2.29-5.12,5.13s2.29,5.13,5.12,5.13,5.13-2.29,5.13-5.13c0-.3-.04-.59-.09-.87Z"/>
      <path class="cls-2" d="M198.92,17.36h-11.33c-1.67,0-3.35.29-4.94.84-1.59-.55-3.27-.84-4.94-.84h-11.33c-1.72,0-3.44.3-5.06.88-4.31-2.15-9.1-3.28-13.94-3.28-1.29,0-2.58.08-3.86.24v-.2c0-8.27-6.73-15-15-15-4.39,0-8.8.86-12.87,2.5-2.45-1.62-5.32-2.5-8.27-2.5-12.31,0-23.87,6.81-29.96,17.5h-4.77c-1.67,0-3.35.29-4.94.84-1.59-.55-3.28-.84-4.94-.84h-11.33c-1.82,0-3.65.34-5.35.99-3.99-1.74-8.35-2.66-12.71-2.66-2.45,0-4.93.3-7.39.89-1.91-.59-3.88-.89-5.87-.89C9.03,15.83,0,24.86,0,35.96c0,2.86.62,5.71,1.81,8.31-.12,1.16-.19,2.26-.19,3.33v36.23c0,8.27,6.73,15,15,15h163.04c.3,0,.6,0,.8-.02,18.45-.52,33.45-15.96,33.45-34.41v-32.03c0-8.27-6.73-15-15-15ZM207.92,64.39c0,15.24-12.39,27.98-27.62,28.41h-.12s-.1.01-.1.01c-.1,0-.26,0-.41,0H16.62c-4.96,0-9-4.04-9-9v-36.23c0-.85.05-1.73.15-2.68l.18-1.63-.68-1.49c-.83-1.82-1.27-3.84-1.27-5.83,0-7.79,6.34-14.12,14.12-14.12,1.38,0,2.76.21,4.1.62l1.57.48,1.6-.38c2-.48,4.01-.72,5.99-.72,3.51,0,7.08.74,10.3,2.15l2.25.98,2.29-.88c1.02-.39,2.13-.6,3.21-.6h11.33c.99,0,2.02.18,2.97.51l1.97.69,1.97-.69c.95-.33,1.98-.51,2.97-.51h8.26l1.73-3.03c5.08-8.92,14.56-14.47,24.74-14.47,1.76,0,3.48.52,4.96,1.5l2.63,1.74,2.93-1.18c3.36-1.35,7.03-2.07,10.63-2.07,4.96,0,9,4.04,9,9v6.99l6.73-.83c1.03-.13,2.08-.19,3.12-.19,3.89,0,7.78.92,11.26,2.65l2.29,1.15,2.41-.87c.97-.35,2.02-.53,3.04-.53h11.33c.99,0,2.01.18,2.97.51l1.97.68,1.97-.68c.95-.33,1.98-.51,2.97-.51h11.33c4.96,0,9,4.04,9,9v32.03Z"/>
    </g>
  </g>
</svg>